<svg id="Layer_1" data-name="Layer 1" xmlns="http://www.w3.org/2000/svg" viewBox="0 0 250 350"><defs><style>.cls-1{fill:#fff;}</style></defs><path class="cls-1" d="M171.58,102.91l-2.36-7.75a16.83,16.83,0,0,0-31.87,0L135,102.91a43.58,43.58,0,0,0-1.22,20.17,19,19,0,0,0,9.77,13.21l-2.63,58.94a11.59,11.59,0,0,0,2.93,9,12.81,12.81,0,0,0,18.09.81,10.32,10.32,0,0,0,.81-.81,11.48,11.48,0,0,0,2.94-8.79L163,136.29a19,19,0,0,0,9.75-13.21,43.58,43.58,0,0,0-1.21-20.17Zm-6,18.89a11.65,11.65,0,0,1-7.61,8.76,3.65,3.65,0,0,0-2.37,3.6l2.78,61.89a4.24,4.24,0,0,1-1.1,3.33,5.67,5.67,0,0,1-8,0,4.43,4.43,0,0,1-1.08-3.57L151,134.16a3.68,3.68,0,0,0-2.37-3.6A11.62,11.62,0,0,1,141,121.8a36.07,36.07,0,0,1,1-16.74l2.35-7.75a9.51,9.51,0,0,1,17.84,0l2.35,7.75a36.21,36.21,0,0,1,1,16.74Zm0,0"/><path class="cls-1" d="M114.79,83.76a3.67,3.67,0,0,0-3.67,3.67v31.48l-9.92,9.93a3.65,3.65,0,0,0-1.08,2.77l3.21,64.17a5,5,0,0,1-1.39,3.74,5.17,5.17,0,0,1-7.3,0l0,0a5,5,0,0,1-1.39-3.74l3.23-64.17a3.64,3.64,0,0,0-1.07-2.77l-9.93-9.93V87.43a3.67,3.67,0,1,0-7.33,0v33A3.66,3.66,0,0,0,79.2,123L89,132.87l-3.12,62.55a12.38,12.38,0,1,0,24.74,1.21c0-.4,0-.8,0-1.21l-3.13-62.55,9.85-9.85a3.65,3.65,0,0,0,1.07-2.59v-33a3.67,3.67,0,0,0-3.66-3.67Zm0,0"/><path class="cls-1" d="M92.79,83.76a3.67,3.67,0,0,0-3.67,3.67v29.33a3.67,3.67,0,1,0,7.33,0V87.43a3.67,3.67,0,0,0-3.66-3.67Zm0,0"/><path class="cls-1" d="M103.79,83.76a3.67,3.67,0,0,0-3.67,3.67v29.33a3.67,3.67,0,1,0,7.33,0V87.43a3.67,3.67,0,0,0-3.66-3.67Zm0,0"/><path class="cls-1" d="M125.79,28.76a110,110,0,1,0,110,110,110,110,0,0,0-110-110Zm0,212.67A102.67,102.67,0,1,1,228.45,138.76,102.67,102.67,0,0,1,125.79,241.43Zm0,0"/><path class="cls-1" d="M137.69,207.59a3.67,3.67,0,0,0-4-3.29h-.12a67.31,67.31,0,0,1-15.54,0,3.67,3.67,0,0,0-.86,7.29,74.19,74.19,0,0,0,17.24,0,3.67,3.67,0,0,0,3.29-4Zm0,0"/><path class="cls-1" d="M181.89,91.51a3.67,3.67,0,0,0-5.17-.45h0a3.66,3.66,0,0,0-.44,5.17,66,66,0,0,1-3.9,89.27,3.67,3.67,0,0,0,5.18,5.2,73.34,73.34,0,0,0,4.34-99.2Zm0,0"/><path class="cls-1" d="M143.08,67.48a74,74,0,0,0-43.16,2.65,3.67,3.67,0,0,0,1.29,7.1,3.5,3.5,0,0,0,1.28-.24,66.56,66.56,0,0,1,38.87-2.38,3.67,3.67,0,0,0,1.72-7.13Zm0,0"/><path class="cls-1" d="M79,185.33A66,66,0,0,1,72.4,99.94a3.67,3.67,0,0,0-5.86-4.41l-.06.09a73.33,73.33,0,0,0,7.36,94.9A3.67,3.67,0,0,0,79,185.33Zm0,0"/><path class="cls-1" d="M87.23,285l5.67,18.64,6.23-19.86c.32-1,.87-1.54,1.66-1.54H101a4.85,4.85,0,0,1,1,.11,5.33,5.33,0,0,0,1,.18,13.68,13.68,0,0,0,1.62.07,9.84,9.84,0,0,0,1.73-.11l1.29-.22a2.08,2.08,0,0,1,.44,0c1.13,0,1.7.43,1.7,1.29a1,1,0,0,1-1.18,1.17,6,6,0,0,1-.87-.09,6.08,6.08,0,0,0-.86-.09c-1.25,0-1.88.92-1.88,2.76v14.78c0,1.84.61,2.76,1.84,2.76a3.49,3.49,0,0,0,.81-.11c.54-.05.86-.07,1-.07a1,1,0,0,1,1.18,1.18q0,1.32-1.59,1.32l-.55-.07a37.63,37.63,0,0,0-4.31-.3,21,21,0,0,0-3.32.26,6.53,6.53,0,0,1-1.17.11q-1.44,0-1.44-1.23c0-.85.49-1.27,1.48-1.27a2,2,0,0,1,.56,0l1,.09c.89,0,1.45-.91,1.67-2.75,0-.4.07-1.65.07-3.76,0-.8,0-2,.08-3.53V285c0-.15-.07-.23-.19-.23s-.15.08-.22.23l-6.78,21a1.93,1.93,0,0,1-2.06,1.4,2.89,2.89,0,0,1-1.42-.28,1.86,1.86,0,0,1-.72-1.12l-6.67-21c-.07-.15-.16-.23-.26-.23s-.14.08-.14.22l.22,17c0,1.79.51,2.68,1.47,2.68H86.9c1,0,1.44.42,1.44,1.25s-.5,1.25-1.48,1.25a5.63,5.63,0,0,1-.77-.07c-.54-.07-1.12-.16-1.73-.26a13.77,13.77,0,0,0-1.88-.11,19.27,19.27,0,0,0-2.62.11l-1.55.3-.22,0h-.22c-1.13,0-1.69-.43-1.69-1.29a1.2,1.2,0,0,1,.33-.86,1,1,0,0,1,.81-.35,4.55,4.55,0,0,1,1,.11,5.07,5.07,0,0,0,.81.11c1.25,0,1.88-.92,1.88-2.76V287.3c0-1.84-.63-2.76-1.88-2.76a6.55,6.55,0,0,0-.89.09,6.29,6.29,0,0,1-.88.09,1,1,0,0,1-1.14-1.17q0-1.29,1.65-1.29l.48,0,1.29.15a16.7,16.7,0,0,0,1.81.11,16.15,16.15,0,0,0,1.9-.15c.79-.09,1.38-.14,1.75-.14,1,0,1.59.6,1.91,1.8Z"/><path class="cls-1" d="M128.53,296.15a4.63,4.63,0,0,1-.18,1.71c-.12.21-.48.31-1.07.31H115.56a1,1,0,0,0-.62.13.55.55,0,0,0-.15.43,6.6,6.6,0,0,0,1.66,4.6,5.5,5.5,0,0,0,7.09,1,4,4,0,0,0,1.75-2.25l.33-1.07a1.14,1.14,0,0,1,1.22-.88,1.22,1.22,0,0,1,1.36,1.4,5.31,5.31,0,0,1-2.43,4.25,8.85,8.85,0,0,1-5.53,1.86,7.77,7.77,0,0,1-6.15-2.59,10.2,10.2,0,0,1-2.28-7,10.74,10.74,0,0,1,2.43-7.3,8,8,0,0,1,6.33-2.8,7.62,7.62,0,0,1,5.72,2.32A8.16,8.16,0,0,1,128.53,296.15Zm-13.37-1q0,.51.81.51h8.8q.78,0,.78-.51a4.57,4.57,0,0,0-1.48-3.39,4.78,4.78,0,0,0-3.46-1.44,5.59,5.59,0,0,0-3.76,1.49A4.39,4.39,0,0,0,115.16,295.19Z"/><path class="cls-1" d="M136.9,289.68v1.05a7.1,7.1,0,0,1,5.89-2.8,7.49,7.49,0,0,1,3.76,1,5.26,5.26,0,0,1,2.39,2.53,8.6,8.6,0,0,1,.52,3.28v7c0,1.05,0,1.68,0,1.88.12.83.45,1.25,1,1.25a5.55,5.55,0,0,0,.87-.09,5.75,5.75,0,0,1,.75-.1,1.13,1.13,0,0,1,.83.34,1,1,0,0,1,.35.81,1.14,1.14,0,0,1-.44.92,1.64,1.64,0,0,1-1.07.37,15.2,15.2,0,0,1-1.69-.15,17.71,17.71,0,0,0-2.21-.15,13.72,13.72,0,0,0-1.59.08l-1.95.22q-1.47,0-1.47-1.29c0-.76.42-1.15,1.27-1.15a3.56,3.56,0,0,1,.68.08,6,6,0,0,0,.9.15c.6,0,.93-.68,1-2V296a12.38,12.38,0,0,0-.19-2.69,3.51,3.51,0,0,0-1.43-2.17,4.64,4.64,0,0,0-2.75-.85,4.55,4.55,0,0,0-4.22,2.1,9.9,9.9,0,0,0-.88,4.9v4.9a7.21,7.21,0,0,0,.22,2.21.81.81,0,0,0,.81.59,3.31,3.31,0,0,0,.81-.13,4,4,0,0,1,.85-.13c.76,0,1.14.42,1.14,1.24s-.49,1.2-1.47,1.2c-.2,0-.84-.08-1.92-.22a12.39,12.39,0,0,0-1.81-.12,18.83,18.83,0,0,0-2.06.15c-1.08.12-1.69.19-1.84.19-1,0-1.55-.42-1.55-1.26a1.05,1.05,0,0,1,1.2-1.18,4.34,4.34,0,0,1,.7.11,4.25,4.25,0,0,0,1,.12c.75,0,1.14-.72,1.16-2.14v-9.84a4.82,4.82,0,0,0-.31-1.71.89.89,0,0,0-.85-.46,4.89,4.89,0,0,0-.77.09,4.77,4.77,0,0,1-.77.09c-.9,0-1.35-.39-1.35-1.18s.55-1.21,1.66-1.21a1.9,1.9,0,0,1,.37,0l1.36.15a5.19,5.19,0,0,0,1-.09l1-.09C136.54,288.56,136.9,288.93,136.9,289.68Z"/><path class="cls-1" d="M169.8,306.06v-1.14A6.69,6.69,0,0,1,164,307.6c-2.89,0-4.91-.89-6-2.68a5.66,5.66,0,0,1-.81-2.77c0-.51,0-1.59,0-3.24v-3.06c0-3.36-.36-5.05-1.08-5.05a6.47,6.47,0,0,0-.7.06,6,6,0,0,1-.75.05c-.86,0-1.3-.39-1.3-1.19s.53-1.16,1.59-1.16a9.55,9.55,0,0,1,1.08.09,9.51,9.51,0,0,0,1.09.09,10.73,10.73,0,0,0,1.14-.11l.63-.07c.76,0,1.14.46,1.14,1.4v3.16l-.11,2.73v2.4a14.38,14.38,0,0,0,.52,4.6q.84,2.32,4,2.32a5.47,5.47,0,0,0,2.8-.71,3.91,3.91,0,0,0,1.69-1.9,16.49,16.49,0,0,0,.59-5.46v-4.42c-.12-1.18-.44-1.77-.95-1.77h-1.11c-.86,0-1.29-.37-1.29-1.1s.48-1.25,1.44-1.25a9.76,9.76,0,0,1,1,.07,9.94,9.94,0,0,0,1,.07,7.56,7.56,0,0,0,.89-.07,7.42,7.42,0,0,1,.88-.07c.74,0,1.11.39,1.11,1.18a3.44,3.44,0,0,1-.08.81,35.33,35.33,0,0,0-.18,4.14v5.68c0,1.51,0,2.34,0,2.51.12,1.31.46,2,1,2a4.37,4.37,0,0,0,.74-.09,4.17,4.17,0,0,1,.73-.09c.84,0,1.25.4,1.25,1.21s-.51,1.26-1.54,1.26a9.09,9.09,0,0,1-1-.08c-.61-.07-1-.11-1.14-.11l-.78.08a3.39,3.39,0,0,1-.77.11C170.14,307.13,169.8,306.77,169.8,306.06Z"/></svg>