<svg id="Layer_1" data-name="Layer 1" xmlns="http://www.w3.org/2000/svg" viewBox="0 0 250 350"><defs><style>.cls-1{fill:#fff;}</style></defs><path class="cls-1" d="M87,177.65c9.07,12.77,18.11,24.2,24.11,31.56.87,1.07,1.69,2.06,2.48,3H95.47a3.67,3.67,0,1,0,0,7.33h58.66a3.67,3.67,0,1,0,0-7.33H136l2.49-3c6-7.34,15-18.79,24.1-31.56a323.4,323.4,0,0,0,24.22-39c7.48-14.7,11.28-26.91,11.28-36.28A73.28,73.28,0,0,0,176.66,50.4a3.67,3.67,0,1,0-5.19,5.18,66,66,0,0,1,19.33,46.75c0,8.2-3.53,19.29-10.49,33a313.8,313.8,0,0,1-23.67,38.13c-8.94,12.61-17.87,23.91-23.79,31.17-2,2.41-3.75,4.55-5.26,6.35a3.7,3.7,0,0,1-5.58,0c-1.51-1.8-3.29-3.94-5.25-6.35C110.83,197.32,101.9,186,93,173.41a313.8,313.8,0,0,1-23.67-38.13c-7-13.66-10.49-24.75-10.49-32.95a66,66,0,0,1,91.7-60.91,3.67,3.67,0,1,0,2.87-6.76,73.36,73.36,0,0,0-101.9,67.67c0,9.37,3.8,21.58,11.28,36.3a324,324,0,0,0,24.22,39Zm0,0"/><path class="cls-1" d="M124.8,69.23a3.67,3.67,0,0,0,0-7.34,36.67,36.67,0,1,0,25.93,10.74,3.67,3.67,0,1,0-5.19,5.19,29.33,29.33,0,1,1-20.74-8.59Zm0,0"/><path class="cls-1" d="M233.42,229l-22.55-40.34a11.42,11.42,0,0,0-10-5.76H174.76a3.67,3.67,0,1,0,0,7.34h26.13a4,4,0,0,1,3.58,2L227,232.56a3.3,3.3,0,0,1,0,3.39,4,4,0,0,1-3.55,1.94H26.17A4,4,0,0,1,22.62,236a3.3,3.3,0,0,1,0-3.39l22.54-40.33a4,4,0,0,1,3.58-2H74.84a3.67,3.67,0,0,0,0-7.34H48.71a11.44,11.44,0,0,0-10,5.76L16.18,229a10.63,10.63,0,0,0,.11,10.67,11.29,11.29,0,0,0,9.88,5.57H223.43a11.29,11.29,0,0,0,9.87-5.57,10.6,10.6,0,0,0,.12-10.67Zm0,0"/><path class="cls-1" d="M194.47,201.23H179.8a3.65,3.65,0,0,0-2,.62l-11,7.33a3.67,3.67,0,1,0,4.07,6.1l10.06-6.72h13.57a3.67,3.67,0,0,0,0-7.33Zm0,0"/><path class="cls-1" d="M172.47,226.89a3.66,3.66,0,0,0,3.66,3.67h29.34a3.67,3.67,0,0,0,0-7.33H176.13a3.66,3.66,0,0,0-3.66,3.66Zm0,0"/><path class="cls-1" d="M80.8,215.9a3.67,3.67,0,0,0,2-6.72l-11-7.33a3.6,3.6,0,0,0-2-.62H55.13a3.67,3.67,0,0,0,0,7.33H68.7l10.08,6.72a3.7,3.7,0,0,0,2,.62Zm0,0"/><path class="cls-1" d="M44.13,223.23a3.67,3.67,0,0,0,0,7.33H73.47a3.67,3.67,0,0,0,0-7.33Zm0,0"/><path class="cls-1" d="M57,302c0,1.45.15,2.3.44,2.57a1.47,1.47,0,0,0,.87.4,23.49,23.49,0,0,0,2.41.07h3.24a5.84,5.84,0,0,0,3.39-.67,3.34,3.34,0,0,0,.85-2.7c0-.37,0-.79,0-1.28,0-.94-.07-1.51-.07-1.7,0-1.07.43-1.6,1.29-1.6,1,0,1.55.49,1.55,1.47a5.88,5.88,0,0,1,0,.7l-.26,1.88a13.21,13.21,0,0,0-.11,1.69q0,.53.09,1.53t.09,1.53c0,1.11-.62,1.66-1.87,1.66-.25,0-.81,0-1.7-.13-.59,0-1.5-.08-2.72-.13H55.72c-.59,0-1.58.05-2.95.15-.2,0-.54,0-1,.06s-.86,0-1.13,0c-1,0-1.55-.44-1.55-1.33a1,1,0,0,1,1.15-1.18,4.89,4.89,0,0,1,.88.12,5.66,5.66,0,0,0,.89.11c1.25,0,1.87-.92,1.87-2.77V287.77c0-1.82-.62-2.73-1.87-2.73a2.94,2.94,0,0,0-.78.08,5.83,5.83,0,0,1-1,.11,1.08,1.08,0,0,1-.81-.35,1.25,1.25,0,0,1-.34-.87q0-1.29,1.59-1.29a4,4,0,0,1,.55,0l2,.22a24.06,24.06,0,0,0,2.4.18,19.12,19.12,0,0,0,2.36-.18l1.69-.22a3.28,3.28,0,0,1,.48,0c1.11,0,1.66.43,1.66,1.29a1.24,1.24,0,0,1-.33.87,1.08,1.08,0,0,1-.81.35,6.51,6.51,0,0,1-1-.11,2.91,2.91,0,0,0-.77-.08C57.6,285,57,286,57,287.75Z"/><path class="cls-1" d="M81.73,308.07a7.8,7.8,0,0,1-6.19-2.67,12.18,12.18,0,0,1,0-14.33,7.93,7.93,0,0,1,6.28-2.68A8.06,8.06,0,0,1,88.18,291a10.35,10.35,0,0,1,2.32,7.11,10.51,10.51,0,0,1-2.4,7.22A8,8,0,0,1,81.73,308.07Zm.18-17.24a4.94,4.94,0,0,0-4,1.8,8.57,8.57,0,0,0-1.62,5.12v.48a9,9,0,0,0,1.45,5.44,4.79,4.79,0,0,0,4.08,2,5,5,0,0,0,4.21-2,8.74,8.74,0,0,0,1.53-5.47Q87.51,290.82,81.91,290.83Z"/><path class="cls-1" d="M104.09,295.29c0-1,.62-1.55,1.84-1.7a2.86,2.86,0,0,0-1.23-2,4.62,4.62,0,0,0-2.71-.73,4.9,4.9,0,0,0-4.09,2,8.66,8.66,0,0,0-1.54,5.38,9,9,0,0,0,1.45,5.44,4.73,4.73,0,0,0,4,2,4.48,4.48,0,0,0,2.82-.92,4.61,4.61,0,0,0,1.64-2.55c.25-.85.4-1.35.45-1.47a1.28,1.28,0,0,1,1.17-.74,1.42,1.42,0,0,1,1,.41,1.39,1.39,0,0,1,.4,1,5.57,5.57,0,0,1-.59,2.21,7.7,7.7,0,0,1-1.4,2.14,7.37,7.37,0,0,1-5.64,2.32,7.64,7.64,0,0,1-6.06-2.65,10.28,10.28,0,0,1-2.3-7,10.76,10.76,0,0,1,2.38-7.31,7.94,7.94,0,0,1,6.32-2.75A7.49,7.49,0,0,1,107,290a5,5,0,0,1,2,4.07,3.31,3.31,0,0,1-.76,2.25,2.41,2.41,0,0,1-1.93.88,2.2,2.2,0,0,1-1.53-.55A1.75,1.75,0,0,1,104.09,295.29Z"/><path class="cls-1" d="M128,307.92q-3,0-3.72-2.61a6.61,6.61,0,0,1-5.89,2.76,7.27,7.27,0,0,1-4.77-1.47,4.85,4.85,0,0,1-1.79-4,4.78,4.78,0,0,1,2.62-4.49,6.71,6.71,0,0,1,1.71-.72c.48-.11,1.44-.25,2.89-.42a11.45,11.45,0,0,0,4-.92,2.39,2.39,0,0,0,.94-2.18,3,3,0,0,0-1-2.38,4.53,4.53,0,0,0-2.93-.86,5.67,5.67,0,0,0-3.1.92c-.37.25-.55.5-.55.77,0,.1.11.22.33.37a1.47,1.47,0,0,1,.52,1.26,1.54,1.54,0,0,1-.54,1.21,1.91,1.91,0,0,1-1.34.48,2.16,2.16,0,0,1-1.61-.66,2.26,2.26,0,0,1-.64-1.62,4.28,4.28,0,0,1,2-3.54,8.3,8.3,0,0,1,5-1.48q6.7,0,6.71,6.44v7.43a15.79,15.79,0,0,0,.07,2.09c.15.86.56,1.29,1.25,1.29q1.29,0,1.29-2.34v-1.8a1,1,0,0,1,1.13-1.17c.79,0,1.19.59,1.19,1.77v2.29Q131.69,307.92,128,307.92Zm-4.08-7.33V298a4.69,4.69,0,0,1-1.71,1,18,18,0,0,1-3.21.51q-4.19.41-4.19,3.1a2.67,2.67,0,0,0,1,2.21,4.26,4.26,0,0,0,2.74.81,5.41,5.41,0,0,0,3.89-1.35A5,5,0,0,0,123.92,300.59Z"/><path class="cls-1" d="M143.18,302.36V300c0-1,.47-1.51,1.33-1.51s1.29.57,1.29,1.69q0,4-1,5.61a5.07,5.07,0,0,1-4.58,2.13A4.61,4.61,0,0,1,136,306a8.7,8.7,0,0,1-.91-4.64v-8.84q0-.78-.72-.78h-1.21a1.33,1.33,0,0,1-1-.38,1.25,1.25,0,0,1-.4-.94,1.28,1.28,0,0,1,.39-.92,1.15,1.15,0,0,1,.86-.41h1.44c.42,0,.63-.23.63-.7v-3.79a1.25,1.25,0,0,1,1.43-1.4c.89,0,1.33.46,1.33,1.4v3.94c0,.37.22.55.66.55h4c.93,0,1.4.43,1.4,1.29s-.51,1.36-1.51,1.36h-4.06q-.51,0-.51.78v9.06q0,3.87,2.58,3.87C142.2,305.49,143.11,304.45,143.18,302.36Z"/><path class="cls-1" d="M153.65,296.76v4.79c0,1.23,0,1.95,0,2.17.13,1.11.46,1.66,1,1.66a5.68,5.68,0,0,0,.92-.18,1.52,1.52,0,0,1,.55-.08c.94,0,1.4.41,1.4,1.22a1.08,1.08,0,0,1-.46.88,1.79,1.79,0,0,1-1.16.37,12.94,12.94,0,0,1-1.8-.17,14.3,14.3,0,0,0-1.79-.16,17,17,0,0,0-2.14.15c-1,.12-1.61.18-1.93.18-1,0-1.48-.42-1.48-1.25a1.1,1.1,0,0,1,1.27-1.22,5.34,5.34,0,0,1,.87.11,4.58,4.58,0,0,0,.88.11c.59,0,.95-.78,1.07-2.35v-9.44c-.12-1.54-.49-2.32-1.11-2.32a4.32,4.32,0,0,0-.84.13,3.55,3.55,0,0,1-.8.13c-.89,0-1.34-.39-1.34-1.18s.54-1.25,1.63-1.25q.69,0,1,0c.79.1,1.29.15,1.51.15a6.66,6.66,0,0,0,.9-.09,6.93,6.93,0,0,1,.91-.09c.71,0,1.06.48,1.06,1.44a4.16,4.16,0,0,1,0,.44c0,.19,0,.34,0,.44s0,1-.06,2.28C153.66,294.67,153.65,295.7,153.65,296.76Zm-1.92-9.65a2.08,2.08,0,0,1-2.06-2.07,1.94,1.94,0,0,1,.61-1.44,2,2,0,0,1,1.45-.58,2,2,0,0,1,1.46.58,2,2,0,0,1,.6,1.44,2.07,2.07,0,0,1-2.06,2.07Z"/><path class="cls-1" d="M167.58,308.07a7.82,7.82,0,0,1-6.2-2.67,12.18,12.18,0,0,1,0-14.33,8,8,0,0,1,6.29-2.68A8,8,0,0,1,174,291a10.3,10.3,0,0,1,2.32,7.11,10.5,10.5,0,0,1-2.39,7.22A8.06,8.06,0,0,1,167.58,308.07Zm.18-17.24a4.94,4.94,0,0,0-4,1.8,8.5,8.5,0,0,0-1.63,5.12v.48a9,9,0,0,0,1.46,5.44,4.78,4.78,0,0,0,4.07,2,5.06,5.06,0,0,0,4.22-2,8.74,8.74,0,0,0,1.53-5.47Q173.36,290.82,167.76,290.83Z"/><path class="cls-1" d="M184.85,290.15v1.05a7.14,7.14,0,0,1,5.9-2.81,7.4,7.4,0,0,1,3.76,1,5.25,5.25,0,0,1,2.39,2.52,8.63,8.63,0,0,1,.52,3.28v7c0,1.06,0,1.68,0,1.88.12.84.45,1.25,1,1.25a5.55,5.55,0,0,0,.87-.09,5.11,5.11,0,0,1,.75-.09,1.16,1.16,0,0,1,.83.33,1.08,1.08,0,0,1,.35.81,1.15,1.15,0,0,1-.44.92,1.6,1.6,0,0,1-1.07.37,15.52,15.52,0,0,1-1.7-.15,19.42,19.42,0,0,0-2.21-.14,14,14,0,0,0-1.58.07c-1.23.15-1.88.22-1.95.22-1,0-1.48-.43-1.48-1.29s.43-1.14,1.28-1.14a3.49,3.49,0,0,1,.68.07,6,6,0,0,0,.9.15c.6,0,.92-.67,1-2v-6.92a13,13,0,0,0-.19-2.69,3.57,3.57,0,0,0-1.43-2.18,4.71,4.71,0,0,0-2.75-.84,4.55,4.55,0,0,0-4.22,2.1,9.88,9.88,0,0,0-.88,4.9v4.9a7.26,7.26,0,0,0,.22,2.21.81.81,0,0,0,.81.59,4.09,4.09,0,0,0,.81-.13,3.45,3.45,0,0,1,.85-.13q1.14,0,1.14,1.23c0,.8-.49,1.2-1.48,1.2-.19,0-.83-.07-1.91-.22a14.07,14.07,0,0,0-1.81-.11,18.83,18.83,0,0,0-2.06.15c-1.08.12-1.7.18-1.84.18-1,0-1.55-.42-1.55-1.25a1.05,1.05,0,0,1,1.2-1.18,4.34,4.34,0,0,1,.7.11,4.77,4.77,0,0,0,1,.11c.75,0,1.14-.71,1.16-2.14v-9.83a4.57,4.57,0,0,0-.32-1.72.88.88,0,0,0-.84-.46,4.77,4.77,0,0,0-.77.09,4,4,0,0,1-.77.1c-.9,0-1.35-.4-1.35-1.18S178.92,289,180,289a1.31,1.31,0,0,1,.37,0l1.36.15a5.13,5.13,0,0,0,1-.1l1-.09C184.5,289,184.85,289.4,184.85,290.15Z"/></svg>