<svg id="Layer_1" data-name="Layer 1" xmlns="http://www.w3.org/2000/svg" viewBox="0 0 250 350"><defs><style>.cls-1{fill:#fff;}.cls-2{fill:none;stroke:#fff;stroke-linecap:round;stroke-linejoin:round;stroke-width:6px;}</style></defs><path class="cls-1" d="M126.73,129.62H98.8v-8.31H137v60.33h-10.3Zm-4.1-28.92c0-4.71,3.48-7.94,8.19-7.94S139,96,139,100.7s-3.48,8-8.2,8S122.63,105.54,122.63,100.7Z"/><path class="cls-1" d="M124.86,59.21a79,79,0,1,0,79,79,79,79,0,0,0-79-79Zm0,152.66a73.7,73.7,0,1,1,73.7-73.7,73.7,73.7,0,0,1-73.7,73.7Zm0,0"/><path class="cls-2" d="M32.47,79.14a109.44,109.44,0,0,0-17.6,60.66c.51,59.71,49.25,108.48,109,109a110,110,0,0,0,111-111c-.55-59.23-50.63-108.88-109.85-109A109.71,109.71,0,0,0,44,64.3l-.09.1"/><path class="cls-1" d="M91.32,308.61,90,305a1.49,1.49,0,0,0-.46-.73,2.11,2.11,0,0,0-1-.15H82a1.53,1.53,0,0,0-1,.26,4.71,4.71,0,0,0-.72,1.4l-1.07,2.84a2.42,2.42,0,0,0-.14.77c0,.79.48,1.18,1.43,1.18a10.45,10.45,0,0,0,1-.08c.46,0,.8-.07,1-.07,1,0,1.51.43,1.51,1.29s-.55,1.22-1.66,1.22a6,6,0,0,1-.81-.08l-1.84-.23a16.74,16.74,0,0,0-1.7-.06,18,18,0,0,0-1.8.06l-1.55.18a12.77,12.77,0,0,1-1.51.13c-1,0-1.44-.41-1.44-1.22s.47-1.29,1.4-1.29a.57.57,0,0,1,.44.15h.48a1.68,1.68,0,0,0,1.51-.78,8.54,8.54,0,0,0,.74-1.74l6.85-18.59a2.28,2.28,0,0,1,2.33-1.55,2.17,2.17,0,0,1,2.24,1.55l6.6,18.27A7.26,7.26,0,0,0,95.48,310a1.9,1.9,0,0,0,1.47.56,1.64,1.64,0,0,0,.45-.05l1-.1c.93,0,1.4.41,1.4,1.21s-.47,1.3-1.4,1.3a8.32,8.32,0,0,1-1.07-.09,31,31,0,0,0-3.46-.28c-.91,0-2.39.1-4.43.29-.51.05-.9.08-1.17.08-1,0-1.48-.42-1.48-1.26s.54-1.25,1.62-1.25c.22,0,.55,0,1,.07a9.38,9.38,0,0,0,1,.08c.81,0,1.21-.33,1.21-1A5.39,5.39,0,0,0,91.32,308.61Zm-2.66-7.52-3.31-10.17L82,301.09a1.73,1.73,0,0,0-.08.26c0,.22.19.33.56.33H88.3c.29,0,.44-.1.44-.3A1.3,1.3,0,0,0,88.66,301.09Z"/><path class="cls-1" d="M105.8,289.29c-.22,2-.35,4.44-.37,7.23a7.4,7.4,0,0,1,2.4-2.17,6.63,6.63,0,0,1,3.07-.63,7.28,7.28,0,0,1,5.87,2.58,10.27,10.27,0,0,1,2.18,6.85,11.35,11.35,0,0,1-2.3,7.46,7.64,7.64,0,0,1-6.21,2.78,5.9,5.9,0,0,1-5.49-2.83c.1.71.15,1.1.15,1.18a1.15,1.15,0,0,1-1.29,1.32c-.86,0-1.29-.61-1.29-1.84v-2.58l.18-2.84V292.25a4.93,4.93,0,0,0-.28-1.85.84.84,0,0,0-.82-.48q-.12,0-1,.15a4.05,4.05,0,0,1-.7.08c-.84,0-1.26-.4-1.26-1.18s.5-1.22,1.48-1.22a5.22,5.22,0,0,1,.74,0l.88.11a7.69,7.69,0,0,0,1,.07,7.32,7.32,0,0,0,1.14-.11,8.78,8.78,0,0,1,1.11-.11c.54,0,.81.34.81,1ZM105.69,300a15.73,15.73,0,0,0-.26,3.31,14.13,14.13,0,0,0,.59,5A4.32,4.32,0,0,0,110.4,311a4.81,4.81,0,0,0,4.06-2,8.83,8.83,0,0,0,1.5-5.4,9.15,9.15,0,0,0-1.42-5.44,4.6,4.6,0,0,0-3.92-2,5,5,0,0,0-3.15,1.09A4.62,4.62,0,0,0,105.69,300Z"/><path class="cls-1" d="M130.22,313.39a7.8,7.8,0,0,1-6.19-2.67,12.18,12.18,0,0,1,0-14.33,7.94,7.94,0,0,1,6.28-2.67,8,8,0,0,1,6.34,2.62,10.3,10.3,0,0,1,2.32,7.11,10.59,10.59,0,0,1-2.39,7.22A8.06,8.06,0,0,1,130.22,313.39Zm.19-17.24a5,5,0,0,0-4.06,1.81,8.54,8.54,0,0,0-1.62,5.12v.48a9,9,0,0,0,1.46,5.43,4.76,4.76,0,0,0,4.07,2,5,5,0,0,0,4.22-2,8.72,8.72,0,0,0,1.53-5.47Q136,296.16,130.41,296.15Z"/><path class="cls-1" d="M156.94,311.85v-1.14a6.7,6.7,0,0,1-5.79,2.68q-4.35,0-6-2.68a5.66,5.66,0,0,1-.81-2.77c0-.51,0-1.59,0-3.24v-3.06c0-3.36-.36-5.05-1.08-5.05a6.28,6.28,0,0,0-.7.06,6.27,6.27,0,0,1-.75.05c-.87,0-1.3-.39-1.3-1.19s.53-1.16,1.58-1.16a9.51,9.51,0,0,1,1.09.09,9.51,9.51,0,0,0,1.09.09,10.73,10.73,0,0,0,1.14-.11l.63-.07c.76,0,1.14.46,1.14,1.4v3.17l-.11,2.72V304a14.75,14.75,0,0,0,.51,4.6q.85,2.33,4.06,2.32a5.5,5.5,0,0,0,2.8-.71,3.91,3.91,0,0,0,1.69-1.9,16.77,16.77,0,0,0,.59-5.46v-4.42q-.18-1.77-1-1.77h-1.1c-.86,0-1.29-.37-1.29-1.1s.48-1.25,1.44-1.25a9.94,9.94,0,0,1,1,.07,9.76,9.76,0,0,0,1,.07,7.56,7.56,0,0,0,.89-.07,7.27,7.27,0,0,1,.88-.07c.74,0,1.1.39,1.1,1.18a3.52,3.52,0,0,1-.07.81,35.33,35.33,0,0,0-.18,4.14v5.68c0,1.51,0,2.34,0,2.51.13,1.31.47,2,1,2a4.27,4.27,0,0,0,.73-.09,4.37,4.37,0,0,1,.74-.09,1.09,1.09,0,0,1,1.25,1.21c0,.84-.51,1.26-1.55,1.26a8.74,8.74,0,0,1-1-.08c-.62-.07-1-.11-1.15-.11l-.77.08a3.39,3.39,0,0,1-.77.11C157.28,312.92,156.94,312.56,156.94,311.85Z"/><path class="cls-1" d="M174.92,307.68v-2.35c0-1,.46-1.51,1.32-1.51s1.29.56,1.29,1.69c0,2.68-.34,4.54-1,5.6a5.05,5.05,0,0,1-4.58,2.14,4.63,4.63,0,0,1-4.17-1.88,8.73,8.73,0,0,1-.91-4.64v-8.85c0-.51-.24-.77-.72-.77h-1.21a1.34,1.34,0,0,1-1-.39,1.25,1.25,0,0,1-.4-.94,1.3,1.3,0,0,1,.39-.92,1.14,1.14,0,0,1,.86-.4h1.44c.42,0,.63-.24.63-.7V290a1.25,1.25,0,0,1,1.43-1.4c.89,0,1.33.47,1.33,1.4v3.94c0,.37.22.56.66.56h4c.93,0,1.4.43,1.4,1.29s-.5,1.36-1.51,1.36h-4.05c-.35,0-.52.26-.52.77V307q0,3.87,2.58,3.87C173.93,310.82,174.84,309.77,174.92,307.68Z"/></svg>