<svg id="Layer_1" data-name="Layer 1" xmlns="http://www.w3.org/2000/svg" viewBox="0 0 250 350"><defs><style>.cls-1{fill:#fff;}</style></defs><path class="cls-1" d="M230.46,101.83a3.26,3.26,0,0,0,3.27-3.26V72.63A13.85,13.85,0,0,0,219.9,58.79H193.66V54.1a16.62,16.62,0,0,0-16.6-16.6h-22a54.16,54.16,0,0,0-62.71,0h-22A16.63,16.63,0,0,0,53.8,54.1v4.69H27.56A13.86,13.86,0,0,0,13.73,72.63V195.21A13.85,13.85,0,0,0,27.56,209H53.8v4.69a16.62,16.62,0,0,0,16.6,16.6H177.05a16.63,16.63,0,0,0,16.61-16.6V209H219.9a13.85,13.85,0,0,0,13.83-13.84V111.64a3.27,3.27,0,1,0-6.53,0V195.2a7.31,7.31,0,0,1-7.3,7.3H193.66v-27h18.13a3.27,3.27,0,1,0,0-6.53H193.66v-8.24h18.13a3.27,3.27,0,1,0,0-6.54H193.66v-7.73h18.13a3.27,3.27,0,1,0,0-6.53H193.66V65.33H219.9a7.31,7.31,0,0,1,7.3,7.3V98.57a3.26,3.26,0,0,0,3.26,3.26Zm-59-20.07A47.55,47.55,0,0,1,158.86,114a40.3,40.3,0,0,0-21.12-18,26.45,26.45,0,1,0-28,0,40.24,40.24,0,0,0-21.11,18,47.72,47.72,0,1,1,82.85-32.28Zm-47.73,11.8a19.91,19.91,0,1,1,19.91-19.91,19.93,19.93,0,0,1-19.91,19.91Zm0,6.54a33.73,33.73,0,0,1,30.2,18.59,47.62,47.62,0,0,1-60.4,0,33.73,33.73,0,0,1,30.2-18.59Zm63.39,113.63a10.07,10.07,0,0,1-10.06,10.06H70.41a10.07,10.07,0,0,1-10.07-10.06v-16a3.27,3.27,0,0,0-6.54,0v4.81H27.56a7.3,7.3,0,0,1-7.29-7.29V72.63a7.3,7.3,0,0,1,7.29-7.3H53.8v74.59H35.67a3.27,3.27,0,1,0,0,6.53H53.8v7.73H35.67a3.27,3.27,0,0,0,0,6.54H53.8V169H35.67a3.27,3.27,0,1,0,0,6.53H53.8v9.13a3.27,3.27,0,0,0,6.54,0V54.1A10.08,10.08,0,0,1,70.4,44H84.77a54.26,54.26,0,1,0,77.92,0h14.36A10.08,10.08,0,0,1,187.12,54.1Zm0,0"/><path class="cls-1" d="M170.07,153H77.39a3.27,3.27,0,0,0,0,6.54h92.68a3.27,3.27,0,0,0,0-6.54Zm0,0"/><path class="cls-1" d="M170.07,167.29H77.39a3.27,3.27,0,0,0,0,6.53h92.68a3.27,3.27,0,0,0,0-6.53Zm0,0"/><path class="cls-1" d="M100.88,182.06H77.39a3.27,3.27,0,0,0,0,6.53h23.49a3.27,3.27,0,1,0,0-6.53Zm0,0"/><path class="cls-1" d="M68.13,286.75a8.24,8.24,0,0,1,6.67,3.14v-.83a1.25,1.25,0,0,1-.07-.27c0-.55-.07-.8-.07-.75q0-1.29,1.14-1.29c.81,0,1.21.52,1.21,1.55,0,.2,0,.79-.07,1.77a24.75,24.75,0,0,0-.22,2.54,15.59,15.59,0,0,0,.13,2L77,296v.37c0,1.1-.44,1.66-1.32,1.66s-1.43-.53-1.4-1.57v-1.32a5.41,5.41,0,0,0-1.66-4.28,6.29,6.29,0,0,0-4.52-1.64,6.66,6.66,0,0,0-5.69,2.8q-2.06,2.81-2.06,7.74c0,3.36.71,6,2.12,7.86a7,7,0,0,0,5.91,2.82,7.05,7.05,0,0,0,3.71-1,5.48,5.48,0,0,0,2.3-2.62,7.76,7.76,0,0,0,.44-2.87c0-1.13.47-1.7,1.4-1.7s1.51.57,1.51,1.7A8.36,8.36,0,0,1,75,310.45a10,10,0,0,1-7,2.5,9.84,9.84,0,0,1-7.94-3.5q-3-3.49-3-9.32,0-6,3-9.69A9.88,9.88,0,0,1,68.13,286.75Z"/><path class="cls-1" d="M89.06,312.77a7.8,7.8,0,0,1-6.19-2.67,12.2,12.2,0,0,1,0-14.34,7.93,7.93,0,0,1,6.28-2.67,8,8,0,0,1,6.34,2.62,10.3,10.3,0,0,1,2.32,7.11A10.57,10.57,0,0,1,95.44,310,8.08,8.08,0,0,1,89.06,312.77Zm.19-17.25a5,5,0,0,0-4.06,1.81,8.54,8.54,0,0,0-1.62,5.12v.48A9,9,0,0,0,85,308.36a4.75,4.75,0,0,0,4.07,2,5,5,0,0,0,4.22-2,8.7,8.7,0,0,0,1.53-5.47Q94.85,295.53,89.25,295.52Z"/><path class="cls-1" d="M106.34,294.84v1.05a7.16,7.16,0,0,1,5.9-2.8,7.43,7.43,0,0,1,3.76,1,5.3,5.3,0,0,1,2.39,2.52,8.8,8.8,0,0,1,.52,3.28v7c0,1,0,1.68,0,1.88.13.83.46,1.25,1,1.25a5.34,5.34,0,0,0,.86-.09,5.35,5.35,0,0,1,.76-.09,1.18,1.18,0,0,1,.83.33,1.08,1.08,0,0,1,.35.81,1.16,1.16,0,0,1-.44.92,1.62,1.62,0,0,1-1.07.37,15.33,15.33,0,0,1-1.7-.15,17.46,17.46,0,0,0-2.21-.15,13.41,13.41,0,0,0-1.58.08l-2,.22q-1.47,0-1.47-1.29c0-.76.43-1.14,1.28-1.14a3.39,3.39,0,0,1,.67.07,6.21,6.21,0,0,0,.91.15c.6,0,.92-.68,1-2v-6.93a13.35,13.35,0,0,0-.18-2.69,3.58,3.58,0,0,0-1.43-2.17,4.74,4.74,0,0,0-2.75-.85,4.58,4.58,0,0,0-4.23,2.1,10,10,0,0,0-.88,4.9v4.9a7.5,7.5,0,0,0,.22,2.21.81.81,0,0,0,.82.59,3.93,3.93,0,0,0,.81-.12,3.38,3.38,0,0,1,.84-.13c.76,0,1.15.41,1.15,1.23s-.5,1.2-1.48,1.2c-.2,0-.83-.08-1.91-.22a12.57,12.57,0,0,0-1.81-.11c-.52,0-1.2.05-2.06.14-1.08.13-1.7.19-1.84.19-1,0-1.55-.42-1.55-1.25a1.05,1.05,0,0,1,1.2-1.18,3.35,3.35,0,0,1,.69.11,4.94,4.94,0,0,0,1,.11c.75,0,1.13-.71,1.16-2.14V298.1a4.77,4.77,0,0,0-.32-1.71.86.86,0,0,0-.84-.46,4.77,4.77,0,0,0-.77.09,4.89,4.89,0,0,1-.77.09c-.9,0-1.35-.39-1.35-1.18s.55-1.21,1.66-1.21a1.79,1.79,0,0,1,.36,0l1.37.15a5.26,5.26,0,0,0,1-.09l1-.09C106,293.72,106.34,294.09,106.34,294.84Z"/><path class="cls-1" d="M134.42,307.06V304.7c0-1,.46-1.51,1.32-1.51s1.29.56,1.29,1.69q0,4-1,5.6a5,5,0,0,1-4.58,2.14,4.63,4.63,0,0,1-4.17-1.88,8.73,8.73,0,0,1-.91-4.64v-8.84q0-.78-.72-.78h-1.2a1.35,1.35,0,0,1-1-.39,1.23,1.23,0,0,1-.4-.93,1.3,1.3,0,0,1,.39-.93,1.18,1.18,0,0,1,.87-.4h1.43c.42,0,.63-.23.63-.7v-3.8a1.26,1.26,0,0,1,1.44-1.4c.88,0,1.32.47,1.32,1.4v3.95c0,.36.22.55.66.55h4c.93,0,1.4.43,1.4,1.29s-.5,1.36-1.51,1.36h-4.05c-.35,0-.52.26-.52.78v9.06q0,3.87,2.58,3.87C133.43,310.19,134.34,309.14,134.42,307.06Z"/><path class="cls-1" d="M154.75,312.62q-3,0-3.72-2.62-1.87,2.78-5.89,2.77a7.22,7.22,0,0,1-4.77-1.48,4.84,4.84,0,0,1-1.79-3.94,4.76,4.76,0,0,1,2.62-4.49,6.71,6.71,0,0,1,1.71-.72c.48-.11,1.44-.25,2.89-.43a11,11,0,0,0,4-.92,2.37,2.37,0,0,0,.94-2.17,2.92,2.92,0,0,0-1.05-2.38,4.53,4.53,0,0,0-2.93-.86,5.59,5.59,0,0,0-3.1.92,1,1,0,0,0-.55.77c0,.1.11.22.33.37a1.45,1.45,0,0,1,.52,1.25,1.57,1.57,0,0,1-.54,1.22,1.91,1.91,0,0,1-1.34.48,2.14,2.14,0,0,1-1.61-.67,2.22,2.22,0,0,1-.64-1.62,4.27,4.27,0,0,1,2-3.53,8.18,8.18,0,0,1,5-1.48q6.7,0,6.71,6.44V307a15.88,15.88,0,0,0,.07,2.1c.15.86.56,1.28,1.25,1.28q1.29,0,1.29-2.34V306.2a1,1,0,0,1,1.13-1.17c.79,0,1.19.59,1.19,1.77v2.28Q158.44,312.62,154.75,312.62Zm-4.08-7.33v-2.62a4.66,4.66,0,0,1-1.71,1,16.9,16.9,0,0,1-3.21.52q-4.19.4-4.19,3.09a2.66,2.66,0,0,0,1,2.21,4.2,4.2,0,0,0,2.74.81,5.41,5.41,0,0,0,3.89-1.34A5,5,0,0,0,150.67,305.29Z"/><path class="cls-1" d="M170.41,300c0-1,.62-1.55,1.85-1.69a2.9,2.9,0,0,0-1.24-2,4.62,4.62,0,0,0-2.71-.74,4.92,4.92,0,0,0-4.09,2,8.64,8.64,0,0,0-1.54,5.38,9,9,0,0,0,1.45,5.43,4.73,4.73,0,0,0,4,2,4.46,4.46,0,0,0,2.82-.92,4.62,4.62,0,0,0,1.63-2.54q.38-1.29.45-1.47a1.28,1.28,0,0,1,1.18-.74,1.41,1.41,0,0,1,1,.41,1.39,1.39,0,0,1,.4,1,5.41,5.41,0,0,1-.59,2.21,7.7,7.7,0,0,1-1.4,2.14,7.4,7.4,0,0,1-5.63,2.32,7.62,7.62,0,0,1-6.06-2.66,10.21,10.21,0,0,1-2.31-7,10.76,10.76,0,0,1,2.38-7.31,7.94,7.94,0,0,1,6.32-2.75,7.52,7.52,0,0,1,4.9,1.6,5.06,5.06,0,0,1,2,4.08,3.35,3.35,0,0,1-.75,2.24,2.45,2.45,0,0,1-1.94.89,2.2,2.2,0,0,1-1.53-.56A1.77,1.77,0,0,1,170.41,300Z"/><path class="cls-1" d="M188.73,307.06V304.7c0-1,.46-1.51,1.32-1.51s1.29.56,1.29,1.69q0,4-1,5.6a5.05,5.05,0,0,1-4.58,2.14,4.63,4.63,0,0,1-4.17-1.88,8.73,8.73,0,0,1-.91-4.64v-8.84q0-.78-.72-.78h-1.21a1.34,1.34,0,0,1-1-.39,1.23,1.23,0,0,1-.4-.93,1.3,1.3,0,0,1,.39-.93,1.16,1.16,0,0,1,.86-.4H180c.42,0,.63-.23.63-.7v-3.8a1.25,1.25,0,0,1,1.43-1.4c.89,0,1.33.47,1.33,1.4v3.95c0,.36.22.55.66.55h4c.93,0,1.4.43,1.4,1.29s-.5,1.36-1.51,1.36h-4.05c-.35,0-.52.26-.52.78v9.06q0,3.87,2.58,3.87C187.74,310.19,188.65,309.14,188.73,307.06Z"/></svg>