<svg xmlns="http://www.w3.org/2000/svg" viewBox="0 0 225.75 283.71"><defs><style>.cls-1{fill:#414141;}.cls-2{fill:#fbecdf;}.cls-3{fill:#e7dad0;}.cls-4{fill:#fff;}.cls-12,.cls-5{stroke:#ed1c24;stroke-linecap:round;}.cls-10,.cls-12,.cls-5{stroke-miterlimit:10;}.cls-6{fill:#ed1c24;}.cls-7{fill:#212121;}.cls-8{fill:#3d3d3d;}.cls-9{fill:#464646;}.cls-10{stroke:red;}.cls-11{fill:red;}.cls-12{stroke-width:0.5px;}.cls-13{fill:#ef3940;fill-rule:evenodd;}</style></defs><g id="Layer_6" data-name="Layer 6"><path class="cls-1" d="M47,137.79c-2.87,20.32,5.73,40.41,5.73,40.41,3.2,1.87,5.72-9.43,7.81-26.31a59.72,59.72,0,0,1,6.14-19.54Z" transform="translate(-17.4 -16.21)"/><path class="cls-1" d="M226.29,77.09s19.28,82.88-3.35,106c-2.21,2.26-3.49-1-7.12-23-1.58-9.58-5.21-16.68-6.7-27.07-4.88-34.05-21-43.4-21-43.4Z" transform="translate(-17.4 -16.21)"/><path class="cls-2" d="M241.26,178c-1.12-3.72-4.28-5.76-8.19-5.76s-6.31,5.76-6.31,5.76l0,.18c-.88-64.89-39.14-117.13-86.22-117.13l-.79,0-.8,0c-47.07,0-85.34,52.24-86.22,117.13l0-.18s-2.4-5.76-6.31-5.76-7.07,2-8.19,5.76c-.76,2.56-7.7,37.27,19.59,43v0c12,46,43.79,78.92,81.15,78.92l.8,0,.79,0c37.36,0,69.17-32.9,81.15-78.92v0C249,215.29,242,180.58,241.26,178Z" transform="translate(-17.4 -16.21)"/><path class="cls-3" d="M40.6,174.24a58.39,58.39,0,0,0-1.67,12.36,45.36,45.36,0,0,0,1.29,12.1,42.29,42.29,0,0,0,4.61,11.22,67,67,0,0,0,7.5,10,34.24,34.24,0,0,1-9.45-8.68,33.33,33.33,0,0,1-5.57-11.79,37.65,37.65,0,0,1-1-6.49,36.27,36.27,0,0,1,.25-6.51A32.35,32.35,0,0,1,40.6,174.24Z" transform="translate(-17.4 -16.21)"/><path class="cls-3" d="M238.86,174.24a32.33,32.33,0,0,1,4,12.18,34.51,34.51,0,0,1,.25,6.51,37.65,37.65,0,0,1-1,6.49,33.48,33.48,0,0,1-5.56,11.79,34.27,34.27,0,0,1-9.46,8.68,67.09,67.09,0,0,0,7.51-10,43,43,0,0,0,4.61-11.22,45.36,45.36,0,0,0,1.28-12.1A59,59,0,0,0,238.86,174.24Z" transform="translate(-17.4 -16.21)"/><ellipse class="cls-4" cx="122.33" cy="176.54" rx="74.57" ry="99.28"/><circle class="cls-5" cx="122.33" cy="78.93" r="10.91"/><path class="cls-6" d="M139.7,86.64a19.12,19.12,0,0,1-2-5.65,29.12,29.12,0,0,1-.54-5.64,28.51,28.51,0,0,1,.53-5.65,19.2,19.2,0,0,1,2-5.64,19.16,19.16,0,0,1,2,5.64,29.3,29.3,0,0,1,.54,5.65,29.94,29.94,0,0,1-.55,5.64A19.38,19.38,0,0,1,139.7,86.64Z" transform="translate(-17.4 -16.21)"/><path class="cls-6" d="M131.1,94.56a19.76,19.76,0,0,1-5.64,2,30.88,30.88,0,0,1-5.65.54,29.12,29.12,0,0,1-5.64-.54,19.32,19.32,0,0,1-5.65-2,19.65,19.65,0,0,1,5.65-2,29.91,29.91,0,0,1,5.64-.53,29.22,29.22,0,0,1,5.65.54A19.46,19.46,0,0,1,131.1,94.56Z" transform="translate(-17.4 -16.21)"/><path class="cls-6" d="M133.75,88.05a19.63,19.63,0,0,1-5.38-2.61A29.33,29.33,0,0,1,124,81.83a28.75,28.75,0,0,1-3.61-4.36,19.56,19.56,0,0,1-2.61-5.39,19.56,19.56,0,0,1,5.39,2.61,30.05,30.05,0,0,1,8,8A19.63,19.63,0,0,1,133.75,88.05Z" transform="translate(-17.4 -16.21)"/><path class="cls-6" d="M133.86,101.52a15.16,15.16,0,0,1-.66,7.32,13.21,13.21,0,0,1-3.08,4.9,13,13,0,0,1-4.89,3.09,15.07,15.07,0,0,1-7.33.65,15.07,15.07,0,0,1,.65-7.33,13.08,13.08,0,0,1,8-8A15.16,15.16,0,0,1,133.86,101.52Z" transform="translate(-17.4 -16.21)"/><path class="cls-6" d="M139.7,126.13a15.14,15.14,0,0,1-4.71-5.65,13.07,13.07,0,0,1,0-11.28,15,15,0,0,1,4.73-5.65,15.09,15.09,0,0,1,4.72,5.65,13,13,0,0,1,1.28,5.64,13.17,13.17,0,0,1-1.3,5.64A15.2,15.2,0,0,1,139.7,126.13Z" transform="translate(-17.4 -16.21)"/><path class="cls-6" d="M148.35,94.56a19.51,19.51,0,0,1,5.65-2,29.12,29.12,0,0,1,5.64-.54,30,30,0,0,1,5.65.53,19.49,19.49,0,0,1,5.64,2,19.16,19.16,0,0,1-5.64,2,29.22,29.22,0,0,1-5.65.54,30.78,30.78,0,0,1-5.64-.54A19.82,19.82,0,0,1,148.35,94.56Z" transform="translate(-17.4 -16.21)"/><path class="cls-6" d="M146.16,101.18a15.12,15.12,0,0,1,7.31.66,13.17,13.17,0,0,1,4.91,3.08,13,13,0,0,1,3.09,4.89,15.07,15.07,0,0,1,.65,7.33,15.07,15.07,0,0,1-7.33-.65,13.08,13.08,0,0,1-8-8A15.16,15.16,0,0,1,146.16,101.18Z" transform="translate(-17.4 -16.21)"/><path class="cls-6" d="M145.26,88.05a19.61,19.61,0,0,1,2.6-5.38,29.89,29.89,0,0,1,8-8,19.36,19.36,0,0,1,5.38-2.61,19.26,19.26,0,0,1-2.6,5.39A28.75,28.75,0,0,1,155,81.83a29.93,29.93,0,0,1-4.38,3.61A19.43,19.43,0,0,1,145.26,88.05Z" transform="translate(-17.4 -16.21)"/><path class="cls-7" d="M97.77,34s31-15.54,65.31-17.49,53.65,8,57.76,12.14S254.61,57,228,81.28c0,0-13.66,10.42-62.32,16.56-12.35,1.56-41.37,9-64,20.31-35.13,17.46-45,22.11-56.62,22.11S9.29,138,20.15,101.75c11-36.66,63.44-62.52,63.44-62.52s-.4-17.88,5.77-18.41C92.47,20.82,92.61,32.86,97.77,34Z" transform="translate(-17.4 -16.21)"/><path class="cls-8" d="M202.12,19.94c-9.55-2.6-22.58-4.42-39.1-3.48C128.7,18.41,97.71,33.94,97.71,33.94c-5.15-1.16-5.29-13.2-8.41-13.2-6.16.53-5.77,18.41-5.77,18.41S31.07,65,20.09,101.67c-.19.63-.34,1.22-.51,1.83h0v0c7.29,12.25,23.6,14,30.29,14s35-11.91,57.12-24.09,43.72-10.33,76.65-20.56c9.2-2.86,14.7-8.25,17.85-14.54C209.37,42.33,202.12,19.94,202.12,19.94Z" transform="translate(-17.4 -16.21)"/><path class="cls-9" d="M187.93,36.13c-1.16-4.42-10.76-8.87-25.64-8.06-14.7.8-34.55,6.8-55.73,12.34C63.91,51.56,32.05,92.63,40.61,102.49c4.76,5.48,20.65,5.58,42.21-12.67,7-5.93,19.88-14.23,32.05-17.61,18.95-5.25,41.07-11.49,55-16C185,51.24,189.12,40.69,187.93,36.13Z" transform="translate(-17.4 -16.21)"/><circle class="cls-10" cx="90.85" cy="142.19" r="13.95"/><circle class="cls-11" cx="81.35" cy="131.18" r="1.58"/><circle class="cls-11" cx="102.46" cy="133.4" r="1.58"/><circle class="cls-11" cx="98.77" cy="154.31" r="1.58"/><circle class="cls-11" cx="78.17" cy="149.17" r="1.58"/><circle class="cls-11" cx="84.74" cy="128.98" r="1.58"/><circle class="cls-11" cx="104.42" cy="136.94" r="1.58"/><circle class="cls-11" cx="95.11" cy="156.02" r="1.58"/><circle class="cls-11" cx="76.73" cy="145.4" r="1.58"/><circle class="cls-11" cx="88.6" cy="127.8" r="1.58"/><circle class="cls-11" cx="105.33" cy="140.87" r="1.58"/><circle class="cls-11" cx="91.12" cy="156.65" r="1.58"/><circle class="cls-11" cx="76.37" cy="141.38" r="1.58"/><circle class="cls-11" cx="92.64" cy="127.73" r="1.58"/><circle class="cls-11" cx="105.12" cy="144.91" r="1.58"/><circle class="cls-11" cx="87.11" cy="156.16" r="1.58"/><circle class="cls-11" cx="77.15" cy="137.41" r="1.58"/><circle class="cls-11" cx="96.54" cy="128.78" r="1.58"/><circle class="cls-11" cx="103.8" cy="148.73" r="1.58"/><circle class="cls-11" cx="83.39" cy="154.58" r="1.58"/><circle class="cls-11" cx="78.98" cy="133.81" r="1.58"/><circle class="cls-11" cx="100" cy="130.86" r="1.58"/><circle class="cls-11" cx="101.48" cy="152.04" r="1.58"/><circle class="cls-11" cx="80.25" cy="152.04" r="1.58"/><path class="cls-5" d="M125.25,211.1c0,11.67,7.68.62,15.35.51,7.39-.11,14.77,11.9,14.77-.51,0-6.26-9.91-22-15.1-22S125.25,204.48,125.25,211.1Z" transform="translate(-17.4 -16.21)"/><circle class="cls-5" cx="122.91" cy="126.1" r="5.04"/><circle class="cls-5" cx="113.86" cy="115.42" r="3.06"/><circle class="cls-5" cx="102.14" cy="110.49" r="2.22"/><circle class="cls-5" cx="90.89" cy="107.83" r="1.32"/><circle class="cls-5" cx="122.91" cy="158.54" r="2.26"/><circle class="cls-12" cx="122.91" cy="150.46" r="1.32"/><circle class="cls-12" cx="122.91" cy="166.61" r="1.32"/><path class="cls-11" d="M87.86,134.85a32.14,32.14,0,0,1,6.44-1.55,46.54,46.54,0,0,1,6.57-.51,35.64,35.64,0,0,1,6.59.58c2.17.43,4.34.93,6.47,1.55A29.93,29.93,0,0,1,125.87,141a15.4,15.4,0,0,1,3.9,5.52,14.93,14.93,0,0,1,1,6.51h-.4a15.38,15.38,0,0,0-1.72-6,13.91,13.91,0,0,0-4.06-4.5,21.75,21.75,0,0,0-5.44-2.81,36.77,36.77,0,0,0-6-1.67c-4.1-.8-8.32-.75-12.49-1.24s-8.43-.82-12.79-1.54Z" transform="translate(-17.4 -16.21)"/><path class="cls-6" d="M108.77,243a82.66,82.66,0,0,0,7.75,3.34,75.62,75.62,0,0,0,7.87,2.51,64.12,64.12,0,0,0,16,2.24,59.87,59.87,0,0,0,8-.5,60.64,60.64,0,0,0,7.95-1.55,66.18,66.18,0,0,0,7.83-2.55,68,68,0,0,0,7.66-3.49,31.91,31.91,0,0,1-6.52,5.67,42.15,42.15,0,0,1-7.71,4.1A45,45,0,0,1,140.34,256a46.3,46.3,0,0,1-17.21-3.52,45.32,45.32,0,0,1-7.72-4A35.62,35.62,0,0,1,108.77,243Z" transform="translate(-17.4 -16.21)"/><circle class="cls-5" cx="122.91" cy="258.4" r="5.43"/><path class="cls-6" d="M140.29,270.38a7.58,7.58,0,0,1-2-2.81,7.82,7.82,0,0,1-.54-2.81,7.58,7.58,0,0,1,.54-2.81,7.28,7.28,0,0,1,2-2.81,7.46,7.46,0,0,1,2.5,5.62,7.62,7.62,0,0,1-.54,2.81A7.47,7.47,0,0,1,140.29,270.38Z" transform="translate(-17.4 -16.21)"/><path class="cls-6" d="M136,274.32a7.36,7.36,0,0,1-2.81,1.95,7.52,7.52,0,0,1-5.62,0,7.35,7.35,0,0,1-2.81-2,7.46,7.46,0,0,1,5.62-2.5,7.58,7.58,0,0,1,2.81.54A7.28,7.28,0,0,1,136,274.32Z" transform="translate(-17.4 -16.21)"/><path class="cls-6" d="M137.33,271.08a7.4,7.4,0,0,1-3.37-.6,7.6,7.6,0,0,1-2.36-1.61,7.49,7.49,0,0,1-2.21-5.74,7.49,7.49,0,0,1,5.74,2.21,7.5,7.5,0,0,1,1.6,2.37A7.35,7.35,0,0,1,137.33,271.08Z" transform="translate(-17.4 -16.21)"/><path class="cls-6" d="M137.39,277.78a7.4,7.4,0,0,1-.6,3.37,7.62,7.62,0,0,1-1.6,2.37,7.82,7.82,0,0,1-2.37,1.61,7.38,7.38,0,0,1-3.37.59,7.23,7.23,0,0,1,.59-3.37,7.53,7.53,0,0,1,1.61-2.37,7.62,7.62,0,0,1,2.37-1.6A7.4,7.4,0,0,1,137.39,277.78Z" transform="translate(-17.4 -16.21)"/><path class="cls-6" d="M140.29,290a7.48,7.48,0,0,1-2-2.8,7.82,7.82,0,0,1-.54-2.81,7.54,7.54,0,0,1,.54-2.81,7.28,7.28,0,0,1,2-2.81,7.43,7.43,0,0,1,2,2.81,7.33,7.33,0,0,1,.53,2.81,7.62,7.62,0,0,1-.54,2.81A7.36,7.36,0,0,1,140.29,290Z" transform="translate(-17.4 -16.21)"/><path class="cls-6" d="M144.6,274.32a7.28,7.28,0,0,1,2.81-2,7.58,7.58,0,0,1,2.81-.54,7.46,7.46,0,0,1,5.62,2.5,7.35,7.35,0,0,1-2.81,2,7.52,7.52,0,0,1-5.62,0A7.36,7.36,0,0,1,144.6,274.32Z" transform="translate(-17.4 -16.21)"/><path class="cls-6" d="M143.51,277.61a7.4,7.4,0,0,1,3.37.6,7.62,7.62,0,0,1,2.37,1.6,7.82,7.82,0,0,1,1.61,2.37,7.38,7.38,0,0,1,.59,3.37,7.23,7.23,0,0,1-3.37-.59,7.36,7.36,0,0,1-2.37-1.61,7.62,7.62,0,0,1-1.6-2.37A7.37,7.37,0,0,1,143.51,277.61Z" transform="translate(-17.4 -16.21)"/><path class="cls-6" d="M143.06,271.08a7.35,7.35,0,0,1,.6-3.37,7.57,7.57,0,0,1,4-4,7.37,7.37,0,0,1,3.37-.6,7.44,7.44,0,0,1-2.2,5.74,7.64,7.64,0,0,1-2.37,1.61A7.37,7.37,0,0,1,143.06,271.08Z" transform="translate(-17.4 -16.21)"/><path d="M104.5,236.6s-13,3.52-15.19,3.11c0,0,12.32-4.9,13.07-5.55a5.06,5.06,0,0,0,1.17-1.7,4.33,4.33,0,0,0-1.81-.62c-1.2-.17-7.12-.91-7.12-.91l3.68-.68,0-.24-5.68,0s9.43-5.41,8.39-8.11c0,0,.12-.21-1.41-.29s-9.26.69-9.26.69l7-6.56-.13-.2-6,4.07-.36-.28,4.91-8.36s1.11-3.57-2-2.26A66.93,66.93,0,0,0,86,212.86s-1-.88,9-11.23l-.15-.27s-7.33,5.37-8.24,7.32l1-6.39s-2.3-2.64-6.15,2.38-10.45,11.77-12,19.52,8.59,24,8.59,24,6.53-5.13,7.65-5.62a7.39,7.39,0,0,1,2.88-.38s2.84.88,9.09-1.84S104.5,236.6,104.5,236.6Z" transform="translate(-17.4 -16.21)"/><path class="cls-4" d="M77.54,215.16l-1.67,2.41a30.64,30.64,0,0,1,8-12.65s.08,4.27-6.53,13.35Z" transform="translate(-17.4 -16.21)"/><path class="cls-4" d="M84.05,219.31,83.9,219l-2.75,2.06c1.35-3.06,9.93-7.81,9.93-7.81s-3.77,6.81-8.38,10.87c0,0-1-.61-.22-1.9S84.05,219.31,84.05,219.31Z" transform="translate(-17.4 -16.21)"/><path class="cls-4" d="M84.13,227.29c2.8-2.59,11.24-2.66,11.24-2.66s-6.18,4.53-10.68,6.31a2.12,2.12,0,0,1,.76-1.91,28.37,28.37,0,0,1,2.42-1.89Z" transform="translate(-17.4 -16.21)"/><path class="cls-4" d="M84.76,234.67a9.58,9.58,0,0,1,5.48-1.33c3.2.26,7.3.43,7.3.43s-4.12,3.14-13.39,3.31l4.31-1.79Z" transform="translate(-17.4 -16.21)"/><path class="cls-4" d="M76.65,225l-2.21-2.59A6.55,6.55,0,0,1,78.56,225c2.32,2.85,3.49,9,1.9,12.23L80,233h-.25L79,235.47l-.47.08a5.66,5.66,0,0,1-.37-1.47,26.54,26.54,0,0,0-.77-4.65,7.66,7.66,0,0,0-2.81-3.6l-.6-1.28Z" transform="translate(-17.4 -16.21)"/><path class="cls-13" d="M113.37,189.45c2,5.43-1,10.89-4.84,10.89s-6.82-5.46-4.84-10.89,3.66-7.63,4.84-13.41C109.71,181.82,111.33,183.87,113.37,189.45Z" transform="translate(-17.4 -16.21)"/><path class="cls-13" d="M126.51,179.46c2.77,1.38,3.83,4.51,2.45,5.88s-4.5.32-5.88-2.45-1.63-4.22-3.42-6.85C122.29,177.83,123.65,178.05,126.51,179.46Z" transform="translate(-17.4 -16.21)"/><path class="cls-13" d="M94,182.89c-1.38,2.77-4.51,3.83-5.88,2.45s-.32-4.5,2.46-5.87,4.21-1.64,6.85-3.43C95.61,178.67,95.4,180,94,182.89Z" transform="translate(-17.4 -16.21)"/><path class="cls-6" d="M97.82,248.76a2.38,2.38,0,0,1,1.41-1.09,2.79,2.79,0,0,1,.91-.08,3.91,3.91,0,0,1,.89.18,4,4,0,0,0-.89-.15,2.71,2.71,0,0,0-.9.1A2.37,2.37,0,0,0,97.82,248.76Z" transform="translate(-17.4 -16.21)"/><path class="cls-6" d="M97.16,255.71c0,.07.07.36.14.64a4.33,4.33,0,0,0,.13.42l.22.64.48.45,4.08,3.82,4.09,3.83.36.34-.23,0a12.93,12.93,0,0,0-2.83.09c-.86,0-3.83,1.28-4,3.08a1.51,1.51,0,0,0,.43,1.28h0a1.47,1.47,0,0,0,1.11.41,2.16,2.16,0,0,0,1.93-1.8,1.15,1.15,0,0,0-.37-1.08s2.24-2,6.27.92c0,0-2-1.13-2.93.52s.35,2.53,2.34,2.42a6.32,6.32,0,0,1,2.73.57,27.61,27.61,0,0,1,4.94,2.91c.68.46,1.4,1,2.18,1.54l.06,0,.52-.56-2-1.85-4.09-3.82-3.92-3.68h0l0-.06c-.61-.74-1.17-1.42-1.68-2.07a28.22,28.22,0,0,1-3.22-4.74,6.36,6.36,0,0,1-.74-2.69c0-2-1-3.15-2.58-2.18s-.32,3-.32,3c-3.18-3.83-1.33-6.19-1.33-6.19a1.16,1.16,0,0,0,1.1.29,2.15,2.15,0,0,0,1.68-2,1.49,1.49,0,0,0-.49-1.08h0a1.49,1.49,0,0,0-1.3-.34c-1.78.32-2.83,3.36-2.82,4.22A14.36,14.36,0,0,0,97.16,255.71Z" transform="translate(-17.4 -16.21)"/><path class="cls-6" d="M105.73,258.18a5.27,5.27,0,0,0,.8,2.51,20.43,20.43,0,0,0,1.44,2.25,41.69,41.69,0,0,0,3.45,4.07q1.81,2,3.76,3.81c1.29,1.23,2.62,2.42,3.93,3.64-1.38-1.15-2.75-2.3-4-3.52s-2.6-2.46-3.83-3.76a41.09,41.09,0,0,1-3.41-4.15,19.73,19.73,0,0,1-1.4-2.29A5.19,5.19,0,0,1,105.73,258.18Z" transform="translate(-17.4 -16.21)"/><path class="cls-6" d="M99.67,255a2.13,2.13,0,0,1,1.71-1.07,2.36,2.36,0,0,1,1,.21,4.12,4.12,0,0,1,.45.27l.39.33a3.45,3.45,0,0,0-1.85-.56,2.13,2.13,0,0,0-.92.24A3.48,3.48,0,0,0,99.67,255Z" transform="translate(-17.4 -16.21)"/><path class="cls-6" d="M99.87,254.28a2,2,0,0,1,1.48-.9,2.08,2.08,0,0,1,.88.19,2.72,2.72,0,0,1,.73.48,2.7,2.7,0,0,0-1.6-.52A2.2,2.2,0,0,0,99.87,254.28Z" transform="translate(-17.4 -16.21)"/><path class="cls-6" d="M97.59,249.76a2.78,2.78,0,0,1,1.79-1.55,3.3,3.3,0,0,1,1.21-.08,5.79,5.79,0,0,1,.6.12l.56.22a4.88,4.88,0,0,0-2.31,0,3,3,0,0,0-1,.49A3.8,3.8,0,0,0,97.59,249.76Z" transform="translate(-17.4 -16.21)"/><path class="cls-6" d="M97.68,249.29A2.75,2.75,0,0,1,99.34,248a3.39,3.39,0,0,1,1.1-.08,3.73,3.73,0,0,1,1,.24,4.31,4.31,0,0,0-2.11,0A3.07,3.07,0,0,0,97.68,249.29Z" transform="translate(-17.4 -16.21)"/><path class="cls-6" d="M104.5,272.86a10.54,10.54,0,0,1,4.15,0,18,18,0,0,1,4,1.25,23.61,23.61,0,0,1,3.6,2.12c.56.4,1.1.85,1.65,1.28L119.4,279l-1.6-1.33c-.56-.41-1.1-.84-1.67-1.23a22.77,22.77,0,0,0-3.6-2,17.49,17.49,0,0,0-3.91-1.32A12.67,12.67,0,0,0,104.5,272.86Z" transform="translate(-17.4 -16.21)"/><circle class="cls-10" cx="155.05" cy="142.19" r="13.95"/><circle class="cls-11" cx="164.55" cy="131.18" r="1.58"/><circle class="cls-11" cx="143.44" cy="133.4" r="1.58"/><circle class="cls-11" cx="147.12" cy="154.31" r="1.58"/><circle class="cls-11" cx="167.72" cy="149.17" r="1.58"/><circle class="cls-11" cx="161.16" cy="128.98" r="1.58"/><circle class="cls-11" cx="141.48" cy="136.94" r="1.58"/><circle class="cls-11" cx="150.78" cy="156.02" r="1.58"/><circle class="cls-11" cx="169.17" cy="145.4" r="1.58"/><circle class="cls-11" cx="157.3" cy="127.8" r="1.58"/><circle class="cls-11" cx="140.57" cy="140.87" r="1.58"/><circle class="cls-11" cx="154.78" cy="156.65" r="1.58"/><circle class="cls-11" cx="169.52" cy="141.38" r="1.58"/><circle class="cls-11" cx="153.26" cy="127.73" r="1.58"/><circle class="cls-11" cx="140.78" cy="144.91" r="1.58"/><circle class="cls-11" cx="158.79" cy="156.16" r="1.58"/><circle class="cls-11" cx="168.75" cy="137.41" r="1.58"/><circle class="cls-11" cx="149.36" cy="128.78" r="1.58"/><circle class="cls-11" cx="142.1" cy="148.73" r="1.58"/><circle class="cls-11" cx="162.5" cy="154.58" r="1.58"/><circle class="cls-11" cx="166.92" cy="133.81" r="1.58"/><circle class="cls-11" cx="145.89" cy="130.86" r="1.58"/><circle class="cls-11" cx="144.41" cy="152.04" r="1.58"/><circle class="cls-11" cx="165.64" cy="152.04" r="1.58"/><circle class="cls-5" cx="132.04" cy="115.42" r="3.06"/><circle class="cls-5" cx="143.76" cy="110.49" r="2.22"/><circle class="cls-5" cx="155.01" cy="107.83" r="1.32"/><path class="cls-11" d="M192.8,135.25c-4.36.72-8.59,1.08-12.79,1.54s-8.39.44-12.5,1.24a36.77,36.77,0,0,0-6,1.67,21.69,21.69,0,0,0-5.43,2.81A13.79,13.79,0,0,0,152,147a15.21,15.21,0,0,0-1.72,6h-.4a14.93,14.93,0,0,1,1-6.51,15.4,15.4,0,0,1,3.9-5.52,29.89,29.89,0,0,1,11.93-6.05c2.14-.62,4.3-1.12,6.48-1.55a35.64,35.64,0,0,1,6.59-.58,46.66,46.66,0,0,1,6.57.51,32.47,32.47,0,0,1,6.44,1.55Z" transform="translate(-17.4 -16.21)"/><path d="M176.2,236.6s13,3.52,15.19,3.11c0,0-12.32-4.9-13.07-5.55a5.17,5.17,0,0,1-1.18-1.7,4.42,4.42,0,0,1,1.82-.62c1.2-.17,7.12-.91,7.12-.91l-3.68-.68,0-.24,5.68,0s-9.43-5.41-8.4-8.11c0,0-.12-.21,1.41-.29s9.27.69,9.27.69l-7-6.56.13-.2,6,4.07.37-.28-4.91-8.36s-1.11-3.57,2-2.26a66.93,66.93,0,0,1,7.73,4.19s1-.88-9-11.23l.15-.27s7.34,5.37,8.25,7.32l-1-6.39s2.31-2.64,6.15,2.38,10.46,11.77,12,19.52-8.59,24-8.59,24-6.53-5.13-7.65-5.62a7.39,7.39,0,0,0-2.88-.38s-2.84.88-9.1-1.84S176.2,236.6,176.2,236.6Z" transform="translate(-17.4 -16.21)"/><path class="cls-4" d="M203.16,215.16l1.67,2.41a30.6,30.6,0,0,0-8-12.65s-.07,4.27,6.54,13.35Z" transform="translate(-17.4 -16.21)"/><path class="cls-4" d="M196.65,219.31l.15-.27,2.74,2.06c-1.34-3.06-9.92-7.81-9.92-7.81s3.77,6.81,8.38,10.87c0,0,1-.61.22-1.9S196.65,219.31,196.65,219.31Z" transform="translate(-17.4 -16.21)"/><path class="cls-4" d="M196.57,227.29c-2.8-2.59-11.24-2.66-11.24-2.66s6.18,4.53,10.68,6.31a2.12,2.12,0,0,0-.76-1.91,27.35,27.35,0,0,0-2.43-1.89Z" transform="translate(-17.4 -16.21)"/><path class="cls-4" d="M195.94,234.67a9.61,9.61,0,0,0-5.48-1.33c-3.2.26-7.3.43-7.3.43s4.12,3.14,13.39,3.31l-4.32-1.79Z" transform="translate(-17.4 -16.21)"/><path class="cls-4" d="M204.05,225l2.21-2.59a6.58,6.58,0,0,0-4.13,2.53c-2.31,2.85-3.48,9-1.89,12.23l.42-4.24h.25l.77,2.52.46.08a5.38,5.38,0,0,0,.38-1.47,27.47,27.47,0,0,1,.76-4.65,7.66,7.66,0,0,1,2.81-3.6l.61-1.28Z" transform="translate(-17.4 -16.21)"/><path class="cls-13" d="M177,189.45c2,5.43-1,10.89-4.84,10.89s-6.82-5.46-4.84-10.89,3.66-7.63,4.84-13.41C173.34,181.82,175,183.87,177,189.45Z" transform="translate(-17.4 -16.21)"/><path class="cls-13" d="M157.61,182.89c-1.37,2.77-4.5,3.83-5.87,2.45s-.33-4.5,2.45-5.87,4.22-1.64,6.85-3.43C159.24,178.67,159,180,157.61,182.89Z" transform="translate(-17.4 -16.21)"/><path class="cls-13" d="M190.14,179.46c2.78,1.38,3.83,4.51,2.46,5.88s-4.5.32-5.88-2.45-1.63-4.22-3.43-6.85C185.92,177.83,187.28,178.05,190.14,179.46Z" transform="translate(-17.4 -16.21)"/><path class="cls-6" d="M182.88,248.76a2.4,2.4,0,0,0-1.42-1,2.74,2.74,0,0,0-.9-.1,3.85,3.85,0,0,0-.89.15,3.91,3.91,0,0,1,.89-.18,2.81,2.81,0,0,1,.91.08A2.41,2.41,0,0,1,182.88,248.76Z" transform="translate(-17.4 -16.21)"/><path class="cls-6" d="M183.54,255.71c0,.07-.07.36-.14.64a4.33,4.33,0,0,1-.13.42l-.22.64-.49.45-4.08,3.82-4.08,3.83-.36.34.23,0a13,13,0,0,1,2.83.09c.86,0,3.83,1.28,4,3.08a1.48,1.48,0,0,1-.44,1.28h0a1.47,1.47,0,0,1-1.11.41,2.14,2.14,0,0,1-1.93-1.8,1.15,1.15,0,0,1,.37-1.08s-2.25-2-6.27.92c0,0,2.05-1.13,2.93.52s-.35,2.53-2.34,2.42a6.32,6.32,0,0,0-2.73.57,27.26,27.26,0,0,0-4.94,2.91c-.68.46-1.4,1-2.18,1.54l-.06,0-.52-.56,2-1.85,4.08-3.82,3.93-3.68h0l0-.06c.61-.74,1.17-1.42,1.68-2.07a28.22,28.22,0,0,0,3.22-4.74,6.36,6.36,0,0,0,.74-2.69c0-2,1-3.15,2.58-2.18s.32,3,.32,3c3.18-3.83,1.33-6.19,1.33-6.19a1.16,1.16,0,0,1-1.1.29,2.15,2.15,0,0,1-1.68-2,1.49,1.49,0,0,1,.49-1.08h0a1.49,1.49,0,0,1,1.3-.34c1.78.32,2.83,3.36,2.82,4.22A14.36,14.36,0,0,1,183.54,255.71Z" transform="translate(-17.4 -16.21)"/><path class="cls-6" d="M175,258.18a5.29,5.29,0,0,1-.7,2.56,18.52,18.52,0,0,1-1.41,2.29,39.68,39.68,0,0,1-3.4,4.15q-1.85,1.95-3.83,3.76c-1.3,1.22-2.67,2.37-4,3.52,1.31-1.22,2.64-2.41,3.93-3.64s2.55-2.5,3.76-3.81a41.69,41.69,0,0,0,3.45-4.07,19,19,0,0,0,1.43-2.25A5.28,5.28,0,0,0,175,258.18Z" transform="translate(-17.4 -16.21)"/><path class="cls-6" d="M181,255a3.7,3.7,0,0,0-.8-.58,2.13,2.13,0,0,0-.92-.24,3.45,3.45,0,0,0-1.85.56l.39-.33a3.23,3.23,0,0,1,.44-.27,2.44,2.44,0,0,1,1-.21A2.14,2.14,0,0,1,181,255Z" transform="translate(-17.4 -16.21)"/><path class="cls-6" d="M180.82,254.28a2.16,2.16,0,0,0-1.48-.75,2.7,2.7,0,0,0-1.6.52,2.72,2.72,0,0,1,.73-.48,2,2,0,0,1,.88-.19A1.93,1.93,0,0,1,180.82,254.28Z" transform="translate(-17.4 -16.21)"/><path class="cls-6" d="M183.11,249.76a4,4,0,0,0-.83-.82,3.15,3.15,0,0,0-1-.49,4.84,4.84,0,0,0-2.3,0l.56-.22c.2,0,.39-.1.59-.12a3.34,3.34,0,0,1,1.22.08A2.8,2.8,0,0,1,183.11,249.76Z" transform="translate(-17.4 -16.21)"/><path class="cls-6" d="M183,249.29a3.06,3.06,0,0,0-1.71-1.2,4.31,4.31,0,0,0-2.11,0,3.88,3.88,0,0,1,1.06-.24,3.35,3.35,0,0,1,1.09.08A2.74,2.74,0,0,1,183,249.29Z" transform="translate(-17.4 -16.21)"/><path class="cls-6" d="M176.2,272.86a12.66,12.66,0,0,0-4.12.19,17.49,17.49,0,0,0-3.91,1.32,22.77,22.77,0,0,0-3.6,2c-.58.39-1.11.82-1.67,1.23L161.29,279l1.53-1.42c.55-.43,1.08-.88,1.65-1.28a23.14,23.14,0,0,1,3.6-2.12,17.71,17.71,0,0,1,4-1.25A10.54,10.54,0,0,1,176.2,272.86Z" transform="translate(-17.4 -16.21)"/></g></svg>