<svg xmlns="http://www.w3.org/2000/svg" viewBox="0 0 236.37 56"><defs><style>.cls-1{fill:none;}.cls-2{fill:#c9802f;}.cls-3{fill:#fff;}.cls-4{fill:#7f908a;}</style></defs><g id="text"><path class="cls-1" d="M53.28,15.14c-1.87,0-2.51,1.47-2.51,3.49V29.19h4.95V18.63C55.72,16.8,55.54,15.14,53.28,15.14Z" transform="translate(-0.92 -1.12)"/><rect class="cls-2" x="82.08" y="16.61" width="95.04" height="7.28"/><path class="cls-3" d="M23.92,28.82H13.24a12.1,12.1,0,0,0,5.16,1A13,13,0,0,0,23.92,28.82Z" transform="translate(-0.92 -1.12)"/><polygon class="cls-4" points="236.37 28.23 236.37 22.95 83.05 22.95 83.05 17.74 188.5 17.74 188.5 12.46 105.73 12.46 105.73 7.24 116.85 7.24 116.85 1.96 4.11 1.95 4.11 54.73 224.57 54.77 224.57 49.46 203.37 49.46 203.37 44.23 184.88 44.23 184.88 38.91 214.5 38.84 214.5 33.55 194.32 33.55 194.32 28.23 236.37 28.23"/><polygon class="cls-1" points="62.08 35.03 63.92 35.03 66.06 35.03 67.22 35.03 67.22 29.1 62.08 29.1 62.08 35.03"/><path class="cls-1" d="M65.68,15.14c-1.88,0-2.52,1.47-2.52,3.49V29.19h5V18.63C68.12,16.8,67.93,15.14,65.68,15.14Z" transform="translate(-0.92 -1.12)"/><rect class="cls-3" x="44.39" y="29.15" width="7.8" height="4.01"/><path class="cls-3" d="M58.3,18.14V29.19h7.79v-11c0-2.12.66-3.65,2.63-3.65,2.36,0,2.56,1.73,2.56,3.65V29.19h7.78v-14c0-3.3-1.77-6.92-7-6.92-5.07,0-6.64,3-7,3.19a6.05,6.05,0,0,0-5.5-3.19c-2.83,0-5.11.87-6.69,3.23h-.07V8.78H45.33V29.19h7.79v-11c0-2.12.67-3.65,2.63-3.65C58.1,14.49,58.3,16.22,58.3,18.14Z" transform="translate(-0.92 -1.12)"/><rect class="cls-3" x="33.31" width="7.79" height="5.46"/><rect class="cls-3" x="33.31" y="7.67" width="7.79" height="20.41"/><path class="cls-3" d="M29.6,28.81H25c3.17-1.46,4.76-4.52,4.76-9.72v-18H21.11V19.2c0,1.26.15,4-2.09,4s-2.32-2-2.32-4.17V17.4H8.92v2.35c0,4.28,1.55,7.5,4.9,9.06H.92V36H13.09V56.88h8.65V36H29.6Z" transform="translate(-0.92 -1.12)"/><path class="cls-3" d="M35.89,39.74h-.08V36.48H28.34v20.4h7.78V48.82c0-4.36,1.66-6.17,4.72-6.17a8,8,0,0,1,3.07.51V36.28A8.71,8.71,0,0,0,41.63,36C38.8,36,37.15,37.3,35.89,39.74Z" transform="translate(-0.92 -1.12)"/><rect class="cls-3" x="44.44" y="35.36" width="7.78" height="20.41"/><path class="cls-3" d="M83.26,41.27V36.48H79.09V30.27H71.3v6.21H65.93V30.27H58.14v6.21H54.68v4.79h3.46V51c0,5.58,3.66,6.09,7,6.09,1.65,0,3.42-.24,5-.24V51a13.14,13.14,0,0,1-1.77.11c-2,0-2.39-.82-2.39-2.71V41.27H71.3V51c0,5.58,3.66,6.09,7,6.09,1.65,0,3.42-.24,5-.24V51a13.14,13.14,0,0,1-1.77.11c-2,0-2.4-.82-2.4-2.71V41.27Z" transform="translate(-0.92 -1.12)"/></g></svg>